<?xml version="1.0" encoding="UTF-8"?>
<svg id="Layer_2" data-name="Layer 2" xmlns="http://www.w3.org/2000/svg" viewBox="0 0 304.36 87.07">
  <defs>
    <style>
      .cls-1 {
        fill: #ff9a00;
      }

      .cls-1, .cls-2 {
        stroke-width: 0px;
      }

      .cls-2 {
        fill: #fff;
      }
    </style>
  </defs>
  <g id="Layer_1-2" data-name="Layer 1">
    <g>
      <rect class="cls-1" x="0" y="0" width="304.36" height="87.07" rx="43.53" ry="43.53"/>
      <g>
        <path class="cls-2" d="M60.87,70.03c-7.88.14-10.49-3.46-10.18-10.86.17-6.68,2.35-13.28,7.46-17.58,2.97-2.52,6.74-3.9,9.94-5.9,3-1.8,6.42-4.13,9.98-2.42,1.81.81,3.42,2.26,4.86,3.65,4.05,3.76,7.84,7.84,4.41,12.69-2.78,3.8-4.51,7.93-6.91,11.89-3.84,5.8-12.49,8.55-19.4,8.54h-.17ZM63.62,63.83c1.9,1.36,6.67-.52,8.85-1.76,3.92-2.25,6.1-5.81,5.61-9.92-.57-5.26-5.58-9.64-10.89-9.37-5.26.13-9.07,4.92-10.18,9.78-.47,2.19-.46,4.59.95,4.39,2.2-1.02,4.17-6.5,8.12-4.41,1.6.83,2.89,2.71,2.59,4.52-.37,2.4-4.01,4.12-5.03,5.61-.24.34-.36.78-.06,1.12l.04.05Z"/>
        <path class="cls-2" d="M37.67,51.65c-.62-8.09,7.95-15.71,6.28-23.6-.56-2.06-2.08-4.27-2.74-6.18-2.05-6.07,5.06-2.86,6.71.19,8.13,12.91-9.37,22.28-3,36.45.6,1.68,2.84,7.96-.83,6.25-3.33-2.07-6.32-8.52-6.41-12.94v-.17Z"/>
      </g>
      <g>
        <path class="cls-2" d="M118.77,58.38c-3.78,0-6.91-1.26-9.37-3.77-2.47-2.51-3.7-5.61-3.7-9.3s1.23-6.82,3.7-9.32c2.47-2.5,5.59-3.75,9.37-3.75,2.28,0,4.38.53,6.3,1.6,1.93,1.07,3.43,2.51,4.51,4.33l-4.27,2.48c-.62-1.12-1.51-2-2.66-2.64-1.15-.63-2.44-.95-3.88-.95-2.44,0-4.41.77-5.91,2.3-1.5,1.53-2.25,3.52-2.25,5.96s.75,4.39,2.25,5.93c1.5,1.53,3.47,2.3,5.91,2.3,1.44,0,2.74-.32,3.9-.95,1.16-.63,2.04-1.5,2.64-2.6l4.27,2.48c-1.08,1.82-2.57,3.26-4.49,4.33-1.92,1.07-4.02,1.6-6.32,1.6Z"/>
        <path class="cls-2" d="M146.42,57.88l-5.08-8.73h-3.75v8.73h-4.96v-25.14h10.06c2.32,0,4.3.81,5.93,2.44,1.63,1.63,2.44,3.59,2.44,5.89,0,1.56-.44,3-1.33,4.33-.88,1.33-2.06,2.33-3.52,3l5.57,9.48h-5.35ZM137.59,37.37v7.43h5.1c.93,0,1.74-.36,2.41-1.1.67-.73,1.01-1.61,1.01-2.64s-.34-1.9-1.01-2.62c-.67-.72-1.47-1.08-2.41-1.08h-5.1Z"/>
        <path class="cls-2" d="M159.64,53.14h10.59v4.74h-15.55v-25.14h15.37v4.74h-10.42v5.35h9.52v4.67h-9.52v5.64Z"/>
        <path class="cls-2" d="M190.64,57.88l-1.6-4.53h-10.33l-1.51,4.53h-5.35l8.8-25.14h6.14l8.87,25.14h-5.03ZM180.33,48.72h7.08l-3.63-10.27-3.45,10.27Z"/>
        <path class="cls-2" d="M212.9,32.74v4.74h-6.79v20.4h-4.96v-20.4h-6.75v-4.74h18.5Z"/>
        <path class="cls-2" d="M215.67,32.74h4.96v25.14h-4.96v-25.14Z"/>
        <path class="cls-2" d="M246.45,54.59c-2.54,2.53-5.63,3.79-9.27,3.79s-6.72-1.26-9.25-3.79c-2.53-2.53-3.79-5.62-3.79-9.28s1.26-6.76,3.79-9.28c2.53-2.53,5.61-3.79,9.25-3.79s6.73,1.26,9.27,3.79c2.54,2.53,3.81,5.62,3.81,9.28s-1.27,6.76-3.81,9.28ZM231.4,51.22c1.56,1.54,3.48,2.32,5.78,2.32s4.23-.77,5.78-2.32c1.56-1.54,2.33-3.51,2.33-5.91s-.78-4.37-2.33-5.93c-1.56-1.56-3.48-2.33-5.78-2.33s-4.23.78-5.78,2.33c-1.56,1.56-2.33,3.53-2.33,5.93s.78,4.36,2.33,5.91Z"/>
        <path class="cls-2" d="M268.28,32.74h4.96v25.14h-3.77l-10.77-15.37v15.37h-4.96v-25.14h3.77l10.78,15.31v-15.31Z"/>
      </g>
    </g>
  </g>
</svg>