<?xml version="1.0" encoding="UTF-8"?>
<svg id="Layer_2" data-name="Layer 2" xmlns="http://www.w3.org/2000/svg" viewBox="0 0 113.52 115.34">
  <defs>
    <style>
      .cls-1 {
        fill: #bd00ff;
      }

      .cls-1, .cls-2 {
        stroke-width: 0px;
      }

      .cls-2 {
        fill: #fff;
      }
    </style>
  </defs>
  <g id="Layer_1-2" data-name="Layer 1">
    <g>
      <path class="cls-1" d="M68.24,6.97l8.51,8.19h11.81c18.4,0,30.46,19.26,22.42,35.81l-5.16,10.63,3.65,11.24c5.69,17.5-8.9,34.92-27.13,32.39l-11.7-1.62-9.56,6.94c-14.89,10.82-35.96,2.32-39.19-15.79l-2.07-11.63-9.56-6.94c-14.89-10.82-13.32-33.48,2.91-42.15l10.42-5.57,3.65-11.24C32.94-.27,54.98-5.78,68.24,6.97Z"/>
      <g>
        <path class="cls-2" d="M78.87,47.99c5.13,14.72-11.95,20.93-23.54,22.37-9.06,1.22-15.94-4.35-18.38-12.89-1.78-5.79-2.19-11.56-1.85-17.44.29-2.26.02-6.66,3.13-6.66.61.07.87.15,1.51.39,4.66,2.26,6.64,2.83,11.81,1.04,4.51-1.22,6.85-2.64,8.32-7,.45-1.07,1.18-2.43,2.32-2.53,1.51-.11,2.92,1.29,4,2.29,5.57,5.25,10.46,12.28,12.64,20.3l.04.14ZM61.16,48.04c-1.23.29-1.18,1.89-1.76,3.4-1.34,5.1-7.25,6.63-11.77,4.43-1.87-.73-3.91-2.74-5.98-1.98-3.45,2.46,2.16,9.5,4.72,10.98,8.1,4.71,18.52,1.56,25.37-4.19,1.67-1.41,3.27-3.18,3.75-5.36.91-3.99-2.67-3.44-5.27-2.92-2.25.3-3.76.11-5.3-1.18-1.28-.97-2.23-2.92-3.69-3.18h-.07ZM70.1,38.43c.36-1.55-1.29-3.1-2.58-4.93-.98-1.17-1.86-2.83-3.18-3.56-1.64-.56-2.03,3.65-2.98,4.63-1.68,2.75-4.91,2.54-7.94,3.41-6.46,2.46-6.37,3.49-13.05.7-2.67-.52-2.01,3.24-2.04,4.91.11,2.09.04,5.72,1.02,6.9,1.63,1.82,4.32-2.8,5.85-3.55,2-1.48,4.43-2.42,6.91-2.7,5.4-.23,7.9,1.42,12.61-2.38,1.43-1.29,4.75-1.9,5.35-3.33l.03-.08Z"/>
        <path class="cls-2" d="M57.93,63.49c-1.01.25-2.25.07-3.56-.12-1.72-.32-3.71-.27-5.02-1.51-.87-.82-.59-2.11.65-2.59,2-.87,10.31-1.12,11.26.89.15,1.32-2.08,2.96-3.2,3.3l-.12.03Z"/>
      </g>
      <g>
        <path class="cls-2" d="M55.18,94.54l-4.07-16.26,2.87-.72,4.07,16.26-2.87.72Z"/>
        <path class="cls-2" d="M58.99,80.33c-.48.12-.93.05-1.37-.21s-.71-.63-.83-1.11c-.12-.48-.05-.93.21-1.38s.63-.73,1.1-.84c.49-.12.96-.05,1.39.22s.72.64.84,1.12.05.93-.21,1.37c-.26.44-.64.72-1.13.84ZM60.68,93.16l-2.79-11.14,2.88-.72,2.79,11.14-2.88.72Z"/>
        <path class="cls-2" d="M68.89,77.14c-1.6.28-2.23,1.1-1.89,2.49l.03.11,2.36-.59.69,2.76-2.36.59,2.1,8.38-2.87.72-2.1-8.38-1.6.4-.69-2.76,1.6-.4-.03-.11c-.39-1.57-.25-2.88.42-3.92.67-1.04,1.89-1.72,3.65-2.05l.69,2.76Z"/>
        <path class="cls-2" d="M74.4,85.06c.74,1.3,1.96,1.74,3.67,1.31,1.1-.28,1.84-.85,2.22-1.74l2.65.76c-.7,1.87-2.12,3.06-4.26,3.6-1.84.46-3.46.27-4.85-.56-1.39-.84-2.3-2.1-2.72-3.79-.42-1.68-.22-3.22.6-4.61.82-1.4,2.09-2.31,3.81-2.74,1.63-.41,3.12-.18,4.47.68,1.34.86,2.22,2.13,2.64,3.79.09.37.15.77.18,1.21l-8.4,2.1ZM73.8,82.85l5.68-1.42c-.35-.72-.83-1.2-1.44-1.44s-1.23-.28-1.89-.12c-.77.19-1.36.55-1.77,1.07-.41.52-.6,1.16-.59,1.91Z"/>
      </g>
    </g>
  </g>
</svg>