<?xml version="1.0" encoding="UTF-8"?>
<svg id="Layer_2" data-name="Layer 2" xmlns="http://www.w3.org/2000/svg" viewBox="0 0 800.38 172.65">
  <defs>
    <style>
      .cls-1 {
        fill: none;
        stroke: #231f20;
        stroke-miterlimit: 10;
        stroke-width: 4.57px;
      }

      .cls-2 {
        fill: #231f20;
        stroke-width: 0px;
      }
    </style>
  </defs>
  <g id="Layer_1-2" data-name="Layer 1">
    <g>
      <g>
        <path class="cls-2" d="M108.12,62.03h15.18v58.82h-15.18v-6.59c-3.69,5.49-9.53,8.24-17.53,8.24-6.43,0-11.75-2.16-15.94-6.47-4.2-4.31-6.29-10.27-6.29-17.88v-36.12h15.18v34.24c0,3.92,1.06,6.92,3.18,9,2.12,2.08,4.94,3.12,8.47,3.12,3.92,0,7.06-1.22,9.41-3.65,2.35-2.43,3.53-6.08,3.53-10.94v-31.77Z"/>
        <path class="cls-2" d="M169.88,60.38c6.43,0,11.75,2.16,15.94,6.47,4.19,4.31,6.29,10.28,6.29,17.88v36.12h-15.18v-34.24c0-3.92-1.06-6.92-3.18-9-2.12-2.08-4.94-3.12-8.47-3.12-3.92,0-7.06,1.22-9.41,3.65-2.35,2.43-3.53,6.08-3.53,10.94v31.77h-15.18v-58.82h15.18v6.59c3.69-5.49,9.53-8.24,17.53-8.24Z"/>
        <path class="cls-2" d="M259.29,120.85h-17.65l-21.41-26.73v26.73h-15.18V38.5h15.18v49.51l20.24-25.98h18.12l-23.65,29.06,24.35,29.76Z"/>
        <path class="cls-2" d="M307.3,62.03h15.18v58.82h-15.18v-6.94c-4.55,5.73-10.94,8.59-19.18,8.59s-14.57-3-20.18-9c-5.61-6-8.41-13.35-8.41-22.06s2.8-16.06,8.41-22.06c5.61-6,12.33-9,20.18-9,8.24,0,14.63,2.86,19.18,8.59v-6.94ZM279.29,103.38c3.06,3.1,6.94,4.65,11.65,4.65s8.61-1.55,11.71-4.65c3.1-3.1,4.65-7.08,4.65-11.94s-1.55-8.84-4.65-11.94c-3.1-3.1-7-4.65-11.71-4.65s-8.59,1.55-11.65,4.65c-3.06,3.1-4.59,7.08-4.59,11.94s1.53,8.84,4.59,11.94Z"/>
        <path class="cls-2" d="M370.47,60.38c7.92,0,14.69,3,20.29,9,5.61,6,8.41,13.35,8.41,22.06s-2.8,16.06-8.41,22.06c-5.61,6-12.37,9-20.29,9s-14.59-2.86-19.06-8.59v30.47h-15.18V62.03h15.18v6.94c4.47-5.72,10.82-8.59,19.06-8.59ZM356,103.38c3.06,3.1,6.94,4.65,11.65,4.65s8.61-1.55,11.71-4.65c3.1-3.1,4.65-7.08,4.65-11.94s-1.55-8.84-4.65-11.94c-3.1-3.1-7-4.65-11.71-4.65s-8.59,1.55-11.65,4.65c-3.06,3.1-4.59,7.08-4.59,11.94s1.53,8.84,4.59,11.94Z"/>
        <path class="cls-2" d="M444.12,60.38c7.92,0,14.69,3,20.29,9,5.61,6,8.41,13.35,8.41,22.06s-2.8,16.06-8.41,22.06c-5.61,6-12.37,9-20.29,9s-14.59-2.86-19.06-8.59v30.47h-15.18V62.03h15.18v6.94c4.47-5.72,10.82-8.59,19.06-8.59ZM429.65,103.38c3.06,3.1,6.94,4.65,11.65,4.65s8.61-1.55,11.71-4.65c3.1-3.1,4.65-7.08,4.65-11.94s-1.55-8.84-4.65-11.94c-3.1-3.1-7-4.65-11.71-4.65s-8.59,1.55-11.65,4.65c-3.06,3.1-4.59,7.08-4.59,11.94s1.53,8.84,4.59,11.94Z"/>
        <path class="cls-2" d="M496.36,97.68c2.04,7.37,7.57,11.06,16.59,11.06,5.8,0,10.2-1.96,13.18-5.88l12.24,7.06c-5.8,8.39-14.35,12.59-25.65,12.59-9.73,0-17.53-2.94-23.41-8.82-5.88-5.88-8.82-13.29-8.82-22.24s2.9-16.25,8.71-22.18c5.8-5.92,13.25-8.88,22.35-8.88,8.63,0,15.74,2.98,21.35,8.94,5.61,5.96,8.41,13.33,8.41,22.12,0,1.96-.2,4.04-.59,6.24h-44.35ZM496.12,85.91h30c-.86-4-2.65-6.98-5.35-8.94-2.71-1.96-5.79-2.94-9.24-2.94-4.08,0-7.45,1.04-10.12,3.12-2.67,2.08-4.43,5-5.29,8.77Z"/>
        <path class="cls-2" d="M596,38.5h15.18v82.35h-15.18v-6.94c-4.47,5.73-10.82,8.59-19.06,8.59s-14.69-3-20.29-9c-5.61-6-8.41-13.35-8.41-22.06s2.8-16.06,8.41-22.06c5.61-6,12.37-9,20.29-9s14.59,2.86,19.06,8.59v-30.47ZM568.06,103.38c3.1,3.1,7,4.65,11.71,4.65s8.59-1.55,11.65-4.65c3.06-3.1,4.59-7.08,4.59-11.94s-1.53-8.84-4.59-11.94c-3.06-3.1-6.94-4.65-11.65-4.65s-8.61,1.55-11.71,4.65c-3.1,3.1-4.65,7.08-4.65,11.94s1.55,8.84,4.65,11.94Z"/>
        <path class="cls-2" d="M640.95,119.44c-1.96,1.96-4.31,2.94-7.06,2.94s-5.1-.98-7.06-2.94c-1.96-1.96-2.94-4.31-2.94-7.06s.98-5.1,2.94-7.06c1.96-1.96,4.31-2.94,7.06-2.94s5.1.98,7.06,2.94c1.96,1.96,2.94,4.31,2.94,7.06s-.98,5.1-2.94,7.06Z"/>
        <path class="cls-2" d="M664.12,54.97c-2.51,0-4.69-.92-6.53-2.76-1.84-1.84-2.76-4.02-2.76-6.53s.92-4.71,2.76-6.59c1.84-1.88,4.02-2.82,6.53-2.82s4.8.94,6.65,2.82c1.84,1.88,2.76,4.08,2.76,6.59s-.92,4.69-2.76,6.53c-1.84,1.84-4.06,2.76-6.65,2.76ZM656.59,120.85v-58.82h15.18v58.82h-15.18Z"/>
        <path class="cls-2" d="M718.36,60.38c6.43,0,11.75,2.16,15.94,6.47,4.19,4.31,6.29,10.28,6.29,17.88v36.12h-15.18v-34.24c0-3.92-1.06-6.92-3.18-9-2.12-2.08-4.94-3.12-8.47-3.12-3.92,0-7.06,1.22-9.41,3.65-2.35,2.43-3.53,6.08-3.53,10.94v31.77h-15.18v-58.82h15.18v6.59c3.69-5.49,9.53-8.24,17.53-8.24Z"/>
      </g>
      <rect class="cls-1" x="2.28" y="2.28" width="795.81" height="168.08" rx="84.04" ry="84.04"/>
    </g>
  </g>
</svg>