<?xml version="1.0" encoding="UTF-8"?>
<svg id="Layer_2" data-name="Layer 2" xmlns="http://www.w3.org/2000/svg" viewBox="0 0 102.07 99.12">
  <defs>
    <style>
      .cls-1 {
        fill: #000;
      }

      .cls-1, .cls-2 {
        stroke-width: 0px;
      }

      .cls-2 {
        fill: #01ff1f;
      }
    </style>
  </defs>
  <g id="Layer_1-2" data-name="Layer 1">
    <g>
      <path class="cls-2" d="M53.2,4.67L3.27,62.64c-6.75,7.84-2.49,20.04,7.68,21.97l75.17,14.26c10.16,1.93,18.6-7.87,15.19-17.63L76.07,9.01c-3.41-9.76-16.12-12.17-22.87-4.34Z"/>
      <path class="cls-1" d="M70.96,33.19c5.2,2.71,6.43,4.84,5.59,10.63-.57,3.94-1.29,7.87-2.29,11.72-1.35,5.25-4.58,7.42-9.84,6.55-6.81-1.12-13.59-2.43-20.34-3.87-4.67-1-6.91-3.79-6.39-8.61.55-5.11,1.72-10.16,2.88-15.18.74-3.18,3.17-4.91,6.34-5.16,1.68-.13,2.37-.73,2.99-2.22,1.33-3.21,4.26-4.88,7.81-4.49,2.46.27,4.93.72,7.32,1.38,3.94,1.09,5.62,3.87,5.93,9.25ZM41.71,42.87c-.23,2.61-.85,5.12-.5,7.49.22,1.47,1.71,3.62,2.98,3.92,7.23,1.69,14.55,3.02,21.89,4.18,1.17.18,3.23-.78,3.73-1.78,1.25-2.5,1.83-5.32,2.67-7.98-4.63-.4-8.66-.74-12.7-1.09l.51.82c-1.3,1.12-2.61,2.25-3.91,3.37-.88-1.54-1.76-3.08-2.64-4.62.25-.19.51-.37.76-.56-4.1-1.2-8.21-2.4-12.79-3.74ZM52.87,29.2c4.88.93,9.45,1.79,14.17,2.69.05-4.52-3.41-4.59-6.05-5.13-2.88-.58-6.27-1.79-8.12,2.44Z"/>
      <g>
        <path class="cls-1" d="M33.45,65.14c.99.19,1.74.67,2.26,1.46.52.79.67,1.76.45,2.93l-1.05,5.56-2.33-.44,1-5.27c.11-.6.04-1.1-.23-1.48-.26-.38-.67-.62-1.21-.73-.6-.11-1.12-.02-1.55.29-.43.31-.72.83-.86,1.58l-.93,4.89-2.33-.44,1.72-9.05,2.33.44-.19,1.01c.73-.74,1.71-.99,2.94-.76Z"/>
        <path class="cls-1" d="M45.02,75.8c-1.1.75-2.33.99-3.66.74s-2.38-.93-3.13-2.03c-.75-1.1-1-2.32-.74-3.66.25-1.34.93-2.38,2.03-3.13,1.1-.75,2.32-.99,3.66-.74,1.34.25,2.38.93,3.14,2.03.75,1.1,1,2.32.75,3.66s-.93,2.38-2.04,3.13ZM40.17,73.22c.38.56.91.9,1.61,1.04.7.13,1.33,0,1.89-.37.56-.38.91-.93,1.04-1.66.14-.72.02-1.37-.37-1.92-.38-.56-.92-.91-1.62-1.04-.7-.13-1.33,0-1.88.38-.55.38-.9.94-1.04,1.66s-.02,1.36.36,1.92Z"/>
        <path class="cls-1" d="M57.1,66.14l2.33.44-2.4,12.67-2.33-.44.2-1.07c-.86.75-1.92,1-3.18.76-1.22-.23-2.17-.89-2.86-1.98-.69-1.09-.9-2.3-.65-3.64s.9-2.39,1.94-3.15c1.04-.76,2.17-1.02,3.38-.79,1.27.24,2.16.87,2.68,1.88l.89-4.69ZM50.91,75.3c.39.57.94.92,1.67,1.06.72.14,1.37.01,1.93-.38s.91-.95,1.05-1.7.02-1.41-.36-1.97c-.38-.57-.93-.92-1.66-1.05-.72-.14-1.37-.01-1.94.37-.57.39-.92.95-1.06,1.7s-.02,1.41.37,1.97Z"/>
        <path class="cls-1" d="M61.82,76.46c.1,1.19.84,1.92,2.23,2.19.89.17,1.62,0,2.2-.52l1.67,1.44c-1.14,1.12-2.57,1.52-4.31,1.19-1.5-.28-2.61-.96-3.34-2.04-.73-1.08-.97-2.3-.71-3.68.26-1.36.92-2.42,1.99-3.16,1.07-.74,2.3-.98,3.7-.71,1.33.25,2.33.92,3.02,2,.69,1.08.9,2.3.65,3.65-.06.3-.15.62-.27.94l-6.82-1.29ZM62.12,74.65l4.61.88c-.02-.64-.2-1.15-.56-1.53-.36-.38-.8-.62-1.33-.72-.63-.12-1.18-.06-1.65.18-.47.24-.83.64-1.07,1.19Z"/>
        <path class="cls-1" d="M72.7,75.51c-.05.24.08.47.37.68.29.21.65.42,1.09.62.44.2.87.43,1.29.7s.76.63,1,1.1c.24.47.3,1.01.19,1.63-.18.93-.66,1.58-1.45,1.95-.79.37-1.7.46-2.74.26-1.86-.35-2.99-1.31-3.39-2.87l2.24-.76c.12.83.63,1.34,1.55,1.51.83.16,1.3-.02,1.4-.54.04-.24-.08-.47-.37-.68-.29-.21-.66-.42-1.09-.63-.44-.21-.87-.45-1.29-.71-.42-.27-.76-.63-1-1.08s-.31-.97-.2-1.57c.17-.89.63-1.53,1.39-1.92.75-.39,1.62-.49,2.6-.3.74.14,1.38.43,1.91.88.54.45.93,1.01,1.16,1.69l-2.2.71c-.17-.67-.6-1.07-1.27-1.2-.3-.06-.56-.04-.79.06-.22.09-.36.26-.4.49Z"/>
      </g>
    </g>
  </g>
</svg>