<?xml version="1.0" encoding="UTF-8"?>
<svg id="Layer_2" data-name="Layer 2" xmlns="http://www.w3.org/2000/svg" viewBox="0 0 83.02 83.02">
  <defs>
    <style>
      .cls-1 {
        fill: #e3ff00;
      }

      .cls-1, .cls-2 {
        stroke-width: 0px;
      }

      .cls-2 {
        fill: #000;
      }
    </style>
  </defs>
  <g id="Layer_1-2" data-name="Layer 1">
    <g>
      <circle class="cls-1" cx="41.51" cy="41.51" r="41.51"/>
      <path class="cls-2" d="M32.9,40.76c.82-3.42,1.27-6.71,2.41-9.74,2.04-5.4,6.73-6.71,10.85-2.78,6.14,5.86,10.18,13.02,10.48,21.74.19,5.62-2.76,9.85-8.03,11.67-2.6.9-5.42,1.47-8.17,1.59-10.76.48-17.91-8.95-14.88-19.38,1.35-4.64,3.19-5.41,7.34-3.11ZM50.09,57.15c2.77-2.62,3.6-5.47,3.15-8.67-.89-6.41-3.85-11.91-8.1-16.66-3.31-3.69-5.86-3.15-7.12,1.6-.89,3.32-.97,6.85-1.5,10.28-.14.91-.46,2.42-.92,2.51-.88.17-2.02-.32-2.87-.83-1.09-.65-2-1.59-3-2.41-3.63,6.52.14,15.62,5.99,16.4.62-3.75.78-7.62,1.97-11.15,1.17-3.47,4.47-3.92,7.21-1.42,2.86,2.62,4.74,5.85,5.19,10.35Z"/>
      <g>
        <path class="cls-2" d="M17.76,23.29c-.32-.64-.41-1.28-.27-1.93.14-.65.46-1.24.93-1.76l2.21,2.03c-.63.54-1,1.19-1.12,1.96-.12.77.19,1.49.93,2.17l3.67,3.37-1.82,1.98-7.69-7.05,1.82-1.98,1.32,1.21Z"/>
        <path class="cls-2" d="M26.24,21.91c.92,1,2.09,1.13,3.51.4.92-.47,1.45-1.13,1.6-1.99l2.5.12c-.24,1.79-1.25,3.15-3.03,4.06-1.54.79-3,.95-4.41.5-1.4-.45-2.47-1.38-3.19-2.8-.72-1.4-.86-2.8-.42-4.2.44-1.4,1.37-2.47,2.81-3.21,1.36-.7,2.73-.8,4.09-.32,1.37.49,2.4,1.42,3.12,2.81.16.31.3.65.41,1.03l-7,3.59ZM25.25,20.07l4.73-2.43c-.46-.56-.98-.89-1.57-.98-.58-.09-1.15,0-1.69.28-.64.33-1.09.77-1.34,1.31-.25.54-.29,1.15-.13,1.81Z"/>
        <path class="cls-2" d="M47.79,11.7c1.19.12,2.11.59,2.74,1.44s.89,1.92.77,3.22l-.62,6.39-2.68-.26.6-6.21c.06-.62-.05-1.12-.32-1.5-.27-.38-.68-.59-1.24-.64-.61-.06-1.1.1-1.48.46s-.6.93-.68,1.69l-.56,5.83-2.68-.26.6-6.21c.06-.62-.04-1.12-.32-1.5-.27-.38-.68-.59-1.24-.64-.59-.06-1.09.1-1.48.46s-.62.93-.7,1.69l-.56,5.83-2.68-.26,1-10.38,2.68.26-.11,1.1c.71-.87,1.72-1.24,3.02-1.11,1.27.12,2.17.71,2.68,1.77.79-.93,1.87-1.33,3.24-1.2Z"/>
        <path class="cls-2" d="M51.09,24.34l5.27-9,2.32,1.36-5.27,9-2.32-1.36ZM58.15,14.94c-.38-.23-.63-.56-.75-1.01-.12-.45-.06-.86.16-1.25.22-.38.56-.64,1.01-.76.45-.12.87-.07,1.25.15.4.23.65.57.76,1.03.11.45.06.87-.17,1.26-.22.38-.56.63-1.01.75-.45.12-.87.06-1.26-.17Z"/>
        <path class="cls-2" d="M61.2,33.37l-2.08-2.31.83-3.8-3.86.44-2.08-2.31,6.51-.73,1.34-6.13,2.08,2.31-.77,3.53,3.59-.4,2.07,2.29-6.23.7-1.4,6.41Z"/>
      </g>
    </g>
  </g>
</svg>